# xmcd
#
# Track frame offsets:
#	150
#	13845
#	31200
#	56037
#	73080
#	96250
#	112165
#	128945
#	145900
#	170745
#
# Disc length: 2516 seconds
#
# Revision: 1
# Processed by: cddbd v1.5.1PL0 Copyright (c) Steve Scherf et al.
# Submitted via: CDex 1.50Beta5
#
DISCID=9709d20a
DTITLE=村松邦男 - ANIMALS
DYEAR=1900
DGENRE=Pop
TTITLE0=アイ・ソー・ザ・ライト
TTITLE1=プラトニック・ラプソディー
TTITLE2=その名Billy Jack
TTITLE3=King Of The Rock’n Roll
TTITLE4=船が空を翔けるとき
TTITLE5=Route Rock’n Roll
TTITLE6=Love Discovery
TTITLE7=心の空にレインボウ
TTITLE8=柊
TTITLE9=Band(1973/1976)
EXTD=
EXTT0=
EXTT1=
EXTT2=
EXTT3=
EXTT4=
EXTT5=
EXTT6=
EXTT7=
EXTT8=
EXTT9=
PLAYORDER=
